<svg xmlns="http://www.w3.org/2000/svg" viewBox="0 0 1024 1024">
  <defs>
    <!-- Light mode shadow (darker shadow for light backgrounds) -->
    <filter id="shadow-light" x="-20%" y="-20%" width="140%" height="140%">
      <feDropShadow dx="4" dy="4" stdDeviation="6" flood-color="rgba(0,0,0,0.4)"/>
    </filter>
    <!-- Dark mode shadow (lighter glow for dark backgrounds) -->
    <filter id="shadow-dark" x="-20%" y="-20%" width="140%" height="140%">
      <feDropShadow dx="3" dy="3" stdDeviation="5" flood-color="rgba(255,255,255,0.3)"/>
    </filter>
  </defs>
  <style>
    .claw-path { fill: currentColor; }
    @media (prefers-color-scheme: light) {
      .claw-path { filter: url(#shadow-light); }
    }
    @media (prefers-color-scheme: dark) {
      .claw-path { filter: url(#shadow-dark); }
    }
  </style>
  <g class="claw-path">
    <path d="M111.4 1025c7.7-35 14.3-70.4 26.2-104.4 4.2-11.8 8.1-23.6 10.1-36 1-6.6 4.6-12.4 7.1-18.6 7.7-19 18-36.4 29.6-53.2 17.1-24.9 27.8-52.6 35.2-81.7 3.5-13.7 7.9-27.2 12.1-40.7 5.1-16.2 7.9-33 13.8-49 2.4-6.4 5-12.7 8.9-18.4 1-1.4 1.7-3.3 4.3-3.8 1.5 4.1-.6 8.1-.3 12.1.2 2.2-1.1 5.1 1.7 6.2 2.6 1 4.3-1.4 5.9-2.9 5.4-5.1 9.5-11.3 12.7-17.9 11.8-24.2 26.8-46.5 40.5-69.5 6.9-11.4 10.5-24.1 14.5-36.6.8-2.5 1.3-5.1 3.3-7.9 8.3 5 12 -1.1 15.5-7.1 7-11.8 12.1-24.5 16-37.6 5.8-19.7 15.9-37.3 24.3-55.8 6.4-14 14.4-27 24.4-38.8 1-1.2 1.7-2.9 4-3.2.5 3.2-1.8 5.6-2.3 8.4-.8 4-5.2 9.1-1.3 12 3.4 2.5 7.4-2.3 10.7-4.5 14.8-10 26.8-23 39.2-35.5 14.8-14.9 28.7-30.5 41.1-47.6 9.4-12.9 15.3-27.7 23.6-41.2 10-16.2 19.3-32.7 31.8-47.2 4.8-5.5 10.1-10.4 16.8-15.2 0 5.1-2.7 8.1-3.9 11.5-1 2.7-3.5 5.9-1.2 8.3 2.3 2.5 5.3-.2 7.8-1.3 10.9-4.7 20.1-12 27-21.6 12.1-16.9 26.9-30.9 43-43.7 8-6.4 14.6-14.1 21.6-21.5 5.6-5.9 12.1-10.3 19.6-13.5 17.1-7.4 34.9-13.8 50-24.9 37.1-27.5 78.8-45.8 121.6-62 .8-.3 1.5-.7 2.5 0 .2 2.3-1.9 2.8-3.3 3.7-15.4 10.1-29.6 21.6-42.3 35-3.8 4-8.4 7.1-12.5 10.8-19.7 17.3-38.5 35.4-55.6 55.2-5 5.8-10.9 10.7-16.9 15.6-4.8 3.9-9 8.4-12.9 13.2-3.1 3.9-4.3 8-3.5 13-.9 6.1-3.2 9.8-9.2 11-23.7 5-39.3 20.1-50.7 40.3-11.4 20.3-22.3 41-34 61.2-8.6 14.7-19.4 27.6-32.2 39.2-18.5 16.7-37.9 32.7-53.7 52.2-12.1 14.9-24.4 29.7-28.7 49.2-1.3 5.7-4.4 10.2-9.1 13.9-5.2 3.9-8.6 9.3-10.5 15.5-3.4 10.7-9 20.5-12.1 31.1-4.8 16.6-13.6 31.5-18.6 47.9-.5 1.7-1 3.2-3 3.6-16.6 3.3-27.8 15.1-40.2 25.1-8.5 6.9-15.1 15.4-21.2 24.4-14 20.6-28 41-36.4 64.7-2 5.7-3.5 11.5-4.4 17.4-1.6 9.7-6.2 16.8-15.4 21.3-16.7 8.3-29.3 21.8-42.2 34.8-17.3 17.5-28.8 38.6-37.5 61.4-4.9 12.9-10.3 25.6-14.6 38.8-1.6 5.1-4.4 9.3-9 12.2-.7.4-1.4.9-2 1.5-16.2 18.1-34.8 34.2-48 54.7-14.7 22.8-28.5 46.2-40.7 70.5-10.7 21.3-22.7 41.9-34.8 62.4-.5.8-.8 1.8-1.2 3.1-.9 0-1.6 0-2.5 0z"/>
    <path d="M349.9 874.9c2-4.7 3.3-9.2 3.4-13.9 0-5 1.6-9.4 3.9-13.8 4-7.9 7.1-16.1 10-24.5 6.8-19.5 19.2-35.3 32.8-50.3 17.3-19.1 32.6-39.6 43.6-63.1 6.8-14.5 17-27 24-41.4 10.3-21 18.1-43 27.2-64.4 7.2-17 11.7-34.6 15.7-52.4.8-3.6 2.4-6 5.3-7.9 12-8 24-15.7 34.9-25.1 14.3-12.3 26.7-26.1 34.4-43.5 1.2-2.6 2.7-3.2 5.1-1.8 6.3 3.5 11.2 1 15.5-3.6 2.5-2.6 4.9-5.5 7.1-8.4 10.1-12.9 16.7-27.4 21.3-43.1 4.5-15.3 13.4-26.8 27.4-35.4 14.9-9.1 29.2-19.3 44.3-28.1 5.8-3.4 11.1-7.5 15.9-12.2 9.7-9.4 19.8-18.3 30.2-26.9 7.6-6.2 12.6-14.6 15.8-23.9 3.4-9.9 9.9-16.9 18.2-23.1 16.6-12.3 33.2-24.6 50.8-35.5 36.1-22.3 69.2-49.4 107.5-68.2 9.4-4.6 18.9-9.1 28.4-13.6.5-.3 1.2-.3 1.8-.4.9 1.8-.5 2.4-1.2 2.9-20 14.6-37.5 32-55.5 48.8-5 4.7-10.1 9.2-15.1 13.9-19.2 18.3-34.3 39.8-47.9 62.4-3.4 5.7-7.9 10.4-13.3 14.1-5.9 4.1-9.7 9.4-11.5 16.4-1.4 5.3-3.5 10.4-5.1 15.6-5.4 17.5-17.4 29.9-31.8 39.9-12.8 8.9-24.8 18.4-35.5 29.8-7.4 7.9-16.5 14-25.2 20.4-7.1 5.2-12.9 11.4-16.8 19.4-9.5 19.5-20.6 38.1-31.6 56.8-6.7 11.3-9.8 24-14.2 36.2-3.8 10.5-7.5 20.9-8.5 32.2-.8 8.3-7.7 13.9-11.3 21.1-2.3-1.4-1.6-2.8-1.5-4-.1-1.5.4-3 .3-4.5-.3-3.9.3-8.5-3.9-10.7-4.2-2.2-7.5 1.2-10 3.8-9.2 9.3-19 17.7-29.6 25.4-3 2.1-5.3 5.1-7.1 8.3-8.4 14-15.9 28.5-22.3 43.5-.2.5-.4 1-.5 1.4-3.7 10.3-2.4 13.3 7.6 17 0 3.8-2.5 6-5.3 7.7-8.4 5.1-16.6 10.7-25.4 14.9-16.6 8-29.9 19.3-40.8 34.2-9.6 13.2-20.5 25.4-30.8 38.1-2 2.5-5.5 5.3-3.9 8.6 1.6 3.3 5.7 1.3 8.7 1.5 2.4.2 4.9-.8 7.6.6-1.3 5.2-4.9 8.4-9 11.4-18.5 13.5-37.9 26-54.9 41.4-12.4 11.3-24.3 23-32 38.6-3.6 7.4-7.5 14.2-8.3 22.5-.5 4.6-4.1 7.9-6.9 11.4-15 18.8-27.8 39.1-42.4 58.1-7.9 10.3-15.8 20.6-23.8 30.9-.8 1.1-1.5 2.8-3.4 2.3-1-1.4.1-2.5.5-3.7 8.6-24 17.3-47.9 25.7-71.9 3.7-10.7 6.3-21.8 11.3-32.4z"/>
    <path d="M502.2 145.1c-6.5 7.7-12 15.6-17.1 23.8-2.6 4.3-6 6.8-11.2 4.2-2.1-1.1-3.5-.1-4.7 1.5-8 11.3-15.7 22.7-21 35.6-6 14.7-13.4 28.5-26.1 38-14.1 11.7-26.6 24.7-31.2 43.4-1.1 4.4-4.1 7.8-8.4 10.1-5.4 2.9-9 7.3-11.8 13-11.5 23.3-18 48.3-25.5 73-3.5 11.4-8.7 21.6-19 28.5-4.2 2.9-8.9 4.8-14 4.6-3-.2-4.9.9-6 3.3-2.3 5.3-6.2 9.2-10.5 13-4.4 4-5.6 10.2-7.7 15.5-2.4 6.2-6.7 10.3-12.2 13.3-3.9 2.2-8.1 3.8-12.4 5.3-8.4 3-10 4.6-10.5 13.6-.8 14.7-3.8 29-8.9 42.8-3.1 8.5-8.2 14.9-16.7 18.8-11.8 5.5-19.9 15.5-28.1 25.1-8.6 10-16.2 20.7-24.2 31.2-1 1.3-1.9 2.8-2.4 4.4-4.4 12.8-10.5 24.8-16.8 36.8-6.7 12.8-16.4 23.5-25.1 34.7-9.6 12.5-18 25.6-25.4 39.4-9.7 18.2-19.1 36.6-28.7 54.9-.6 1.1-.9 2.5-2.7 3.2-1.4-1.6-.3-3.3.1-4.9 6.7-31 14.6-61.8 22.3-92.6 5.8-23.2 16.4-44.2 25.5-66 1.4-3.4 3.8-6.3 6.6-8.7 15-13.4 21.5-30.7 21.6-50.3.1-14.7 1.5-28.9 6.8-42.6 3.2-8.3 7.3-15.7 14.4-21.7 9.8-8.2 16.5-19.2 22.4-30.4 8.4-15.9 17.6-31.3 24.3-48.1.6-1.5 1.6-3 2.8-4.1 11.2-10.3 17.6-23.8 23.9-37.2 9.2-19.7 19.9-38.5 30.5-57.3 1.6-2.9 3.5-4.4 7.2-4.1 4.3.4 7.8-2.4 11.1-4.9 16.6-12.2 28.4-28.3 38.3-46.2 9.5-17.2 20.2-33.7 33-48.8 1.9-2.2 3.5-3.6 6.8-2.4 3.3 1.3 6.1-.8 8.8-2.4 14.9-9 27.8-20.6 41-31.9 24.6-21.2 48.1-43.7 74.5-62.6 15.1-10.8 31.9-18.8 47.6-28.4 9-5.5 18.1-10.6 27.2-15.8 1.3-.8 2.5-2.3 4.4-1.7.4 1.7-.9 2.4-1.9 3.2-20.5 18.6-39.1 39.1-57.6 59.6-5 5.5-9.2 11.8-13.9 18.1z"/>
    <path d="M586.8 763.9c8.8-11.8 15.1-24.7 21.5-37.1.9 0 1.4-.1 1.5.1 6.9 6.1 8.6 6.3 16.6 1.4 6.5-4 11.8-9 14-16.8 4.1-14.6 10.1-28.5 15.5-42.7 2.1-5.7 5.3-10.2 9.7-14.2 8.9-7.9 16.9-16.5 23.1-26.8 1.7-2.8 3.4-5.8 4.3-9 2.1-8.2 7.7-14.3 11.7-21.3 1.1-2 2.7-2.6 4.3-.6 3.6 4.5 6.3 2.2 8.6-1.2 4.1-5.9 8.1-11.8 12.2-17.7 9.2-13.1 18.3-26.2 30.4-36.9 5.6-5 10.3-10.9 14.6-17.1 1.3-1.9 2.7-3.9 4.6-5.1 7.8-5 10.8-12.8 13-21.2.5-2.1 1.2-3.7 3-4.9 11-7.1 20.8-15.5 29.5-25.3 13.5-15.2 30.8-25.9 46.7-38.2 23.5-18.1 48.6-33.9 73.4-50.2.9-.6 1.8-1.5 3.5-1.1.1 2.2-1.6 3.4-2.9 4.7-13.2 14.3-27.2 28-39.6 42.9-14.3 17.2-28.8 34.6-36.1 56.5-1.4 4.3-4.5 7.1-8.3 9.6-11 7.1-21.4 14.7-28.9 25.8-3.4 5.1-5.7 10.6-5.6 16.7.2 9.7-4 17.5-10.4 24.1-7 7.1-12.2 15.3-16.5 24.2-.6 1.3-1.3 2.9-1.2 4.3.5 10.5-4.4 18.8-11.1 26-10.8 11.5-17.8 25.7-28.1 37.5-.5.6-1 1.4-1.6 2-9.8 9.9-14.3 21.5-11 35.4.8 3.5-.6 5.9-3 8.4-4.8 5-10.5 8.2-16.8 10.5-8.6 3.2-15.9 8.2-22.3 14.7-8.9 9-18.2 17.5-26.3 27.4-5.1 6.3-9.6 12.8-10.8 21-.5 3.1-2.3 5.5-4.3 7.8-6.3 7.5-14.4 12.8-22.2 18.5-3.6 2.6-7.2 5.4-10.7 8.2-2.4 1.9-4.9 4.3-5.2 7.1-1.2 10.6-9.6 15.5-16.5 21.4-16.7 14.2-31.2 30.4-44.5 47.8-14 18.4-28.5 36.4-42.8 54.6-.5.6-1 1.4-2.2 1-.3-1.6 1-3.1 1.4-4.6 7.9-26.7 18.6-52.4 29.1-78.1 4.9-12 10.3-23.8 15.7-35.6 3.4-7.4 8.3-13.6 13.9-19.4 4.6-4.7 8-10.1 10.4-16.3 1.9-4.9 1.8-9.4-1.6-13.6-1-1.3-2.4-2.5-1-4.7z"/>
  </g>
</svg>